<svg id="Layer_1" enable-background="new 0 0 58 60" height="512" viewBox="0 0 58 60" width="512" xmlns="http://www.w3.org/2000/svg"><path d="m57.03 60h-56c-.391 0-.746-.228-.909-.583s-.104-.773.152-1.069l24.437-28.347-24.438-28.347c-.254-.296-.314-.714-.151-1.069s.518-.583.909-.583h56c.552 0 1 .448 1 1v15c0 .552-.448 1-1 1h-7c-.552 0-1-.448-1-1v-7h-27.89l16.664 20.367c.301.369.301.898 0 1.267l-16.664 20.367h27.89v-7c0-.552.448-1 1-1h7c.552 0 1 .448 1 1v15c0 .549-.447.997-1 .997zm-53.818-2h52.818v-13h-5v7c0 .552-.448 1-1 1h-31c-.387 0-.738-.223-.904-.572s-.115-.762.13-1.062l17.482-21.367-17.482-21.367c-.245-.299-.295-.712-.13-1.062s.517-.572.904-.572h31c.552 0 1 .448 1 1v7h5v-13h-52.818l23.575 27.347c.323.375.323.931 0 1.306z"/></svg>